<?xml version="1.0" standalone="no"?>
<!DOCTYPE svg PUBLIC "-//W3C//DTD SVG 20010904//EN"
 "http://www.w3.org/TR/2001/REC-SVG-20010904/DTD/svg10.dtd">
<svg version="1.0" xmlns="http://www.w3.org/2000/svg"
 width="900.000000pt" height="900.000000pt" viewBox="0 0 900.000000 900.000000"
 preserveAspectRatio="xMidYMid meet">
<metadata>
Created by potrace 1.10, written by Peter Selinger 2001-2011
</metadata>
<g transform="translate(0.000000,900.000000) scale(0.100000,-0.100000)"
fill="#f36614" stroke="none">
<path d="M4369 7282 c-31 -26 -77 -65 -103 -87 -26 -21 -58 -48 -70 -60 -86
-77 -117 -104 -156 -135 -24 -19 -56 -46 -70 -59 -14 -13 -49 -44 -79 -70 -30
-25 -62 -54 -72 -63 -11 -10 -21 -18 -23 -18 -2 0 -24 -18 -48 -41 -23 -22
-63 -57 -88 -77 -25 -20 -49 -41 -55 -47 -5 -6 -29 -25 -51 -42 -51 -40 -53
-52 -58 -245 l-3 -147 29 15 c15 8 28 19 28 24 0 6 5 10 10 10 6 0 21 10 33
23 26 26 94 86 162 142 26 22 54 45 60 52 7 7 50 44 96 83 89 76 90 77 214
183 93 80 194 168 209 182 6 6 34 28 61 50 28 22 53 45 58 52 4 6 21 14 38 18
25 6 36 2 62 -23 121 -113 142 -132 233 -207 26 -22 64 -56 85 -75 20 -19 58
-53 85 -75 75 -63 136 -117 176 -157 21 -21 42 -38 47 -38 5 0 11 -4 13 -9 2
-4 39 -39 83 -77 44 -38 98 -86 120 -106 22 -20 78 -69 124 -108 46 -39 96
-84 111 -98 15 -15 40 -38 56 -52 16 -14 65 -56 109 -94 44 -38 80 -76 80 -85
0 -14 -19 -16 -135 -19 -130 -3 -135 -3 -162 -29 l-28 -27 0 -572 c0 -469 -2
-573 -13 -577 -8 -3 -481 -6 -1051 -8 -899 -3 -1039 -1 -1046 11 -6 9 -10 224
-10 503 0 507 0 507 -43 555 -18 19 -31 22 -92 22 -67 0 -72 -2 -93 -30 l-22
-29 0 -601 0 -600 27 -31 c50 -55 78 -61 273 -54 96 3 637 7 1201 9 l1026 3
31 23 c18 13 32 29 32 36 0 6 7 14 15 18 10 3 15 19 15 44 0 21 5 43 11 49 8
8 11 161 12 505 2 421 4 498 17 513 14 16 32 17 267 11 211 -5 258 -4 288 8
l35 15 0 70 c0 39 -4 71 -8 71 -5 0 -21 12 -38 28 -16 15 -49 44 -74 64 -25
20 -71 62 -104 92 -32 31 -60 56 -62 56 -2 0 -12 8 -23 18 -10 9 -44 40 -76
67 -32 28 -76 67 -98 88 -21 20 -41 37 -43 37 -3 0 -17 13 -32 28 -15 15 -47
44 -72 64 -25 20 -66 56 -91 80 -26 23 -68 61 -94 83 -43 36 -96 82 -205 181
-19 18 -71 63 -115 101 -44 37 -94 82 -111 98 -17 17 -53 48 -79 70 -64 52
-164 143 -192 172 -12 13 -27 23 -33 23 -5 0 -10 4 -10 8 0 5 -19 23 -42 40
-24 17 -81 67 -128 112 -47 44 -90 80 -96 80 -7 0 -14 7 -18 15 -4 12 -23 15
-83 15 l-78 0 -56 -48z"/>
<path d="M2693 6644 c-29 -33 -30 -87 -3 -114 11 -11 23 -20 26 -20 3 0 32
-20 64 -45 32 -25 63 -45 68 -45 5 0 15 -7 22 -15 11 -13 7 -25 -26 -71 -48
-68 -71 -103 -84 -129 -5 -11 -14 -27 -19 -35 -5 -8 -12 -22 -15 -30 -4 -8
-17 -33 -31 -55 -13 -22 -24 -47 -25 -56 0 -9 -7 -22 -15 -29 -8 -7 -15 -23
-15 -35 0 -12 -7 -28 -15 -35 -8 -7 -15 -27 -15 -45 0 -18 -7 -38 -15 -45 -9
-7 -15 -30 -15 -54 -1 -22 -7 -52 -15 -66 -8 -14 -14 -53 -15 -91 0 -36 -7
-88 -15 -115 -21 -68 -21 -361 0 -441 8 -31 15 -80 15 -108 1 -27 7 -61 15
-75 8 -14 15 -41 15 -60 0 -19 7 -44 15 -54 8 -11 15 -31 15 -45 0 -14 7 -35
15 -45 8 -11 15 -28 15 -37 0 -10 7 -30 15 -46 8 -15 37 -75 65 -133 29 -58
60 -118 71 -135 10 -16 22 -37 26 -45 19 -42 163 -218 245 -301 94 -95 185
-179 194 -179 3 0 32 -20 64 -45 32 -25 62 -45 65 -45 4 0 24 -13 45 -30 21
-16 42 -30 48 -30 5 0 15 -7 22 -15 7 -8 20 -15 30 -15 10 0 23 -7 30 -15 7
-8 20 -15 30 -15 10 0 23 -7 30 -15 7 -8 23 -15 35 -15 12 0 28 -7 35 -15 7
-8 25 -15 40 -15 15 0 33 -7 40 -15 7 -8 22 -15 34 -15 12 0 31 -7 42 -15 10
-8 35 -15 54 -15 19 0 44 -7 54 -15 11 -8 35 -15 53 -15 19 0 50 -7 70 -15 19
-8 57 -15 83 -15 26 0 69 -7 96 -15 70 -21 453 -21 514 0 23 8 66 15 94 15 29
0 59 7 70 15 11 8 36 15 56 15 20 0 45 7 56 15 10 8 33 15 50 15 16 0 39 7 50
15 10 8 28 15 39 15 11 0 29 7 39 15 11 8 30 15 42 15 12 0 27 7 34 15 7 8 20
15 30 15 10 0 23 7 30 15 7 8 23 15 36 15 12 0 26 5 29 11 4 5 17 15 28 20 12
5 36 18 52 29 17 11 39 24 50 30 31 15 55 32 89 63 17 15 36 27 44 27 7 0 15
7 18 15 4 8 11 15 16 15 14 0 318 304 318 318 0 6 14 26 30 44 17 18 30 38 30
45 0 7 5 13 10 13 6 0 15 10 20 23 6 12 19 36 30 52 11 17 24 40 29 52 5 11
15 24 20 28 6 3 11 15 11 26 0 11 7 22 15 25 8 4 15 14 15 24 0 10 7 23 15 30
8 7 15 23 15 35 0 12 7 28 15 35 8 7 15 23 15 35 0 12 7 28 15 35 8 7 15 27
15 45 0 20 6 35 15 39 10 3 15 19 15 43 0 21 7 47 15 57 10 14 15 44 15 96 0
73 -1 77 -33 108 -28 27 -41 32 -81 32 -38 0 -53 -5 -77 -27 -16 -16 -29 -35
-29 -43 0 -8 -7 -24 -15 -34 -8 -11 -15 -36 -15 -57 0 -20 -7 -42 -15 -49 -8
-7 -15 -27 -15 -45 0 -20 -6 -35 -15 -39 -8 -3 -15 -16 -15 -29 0 -14 -7 -30
-15 -37 -8 -7 -15 -20 -15 -30 0 -10 -7 -23 -15 -30 -8 -7 -15 -20 -15 -30 0
-10 -6 -23 -14 -29 -8 -7 -17 -23 -20 -36 -4 -14 -11 -25 -16 -25 -6 0 -10 -9
-10 -20 0 -10 -6 -23 -12 -27 -14 -9 -33 -36 -47 -68 -5 -11 -21 -33 -35 -48
-14 -15 -26 -32 -26 -37 0 -15 -203 -221 -265 -268 -33 -26 -65 -51 -71 -57
-6 -5 -22 -17 -34 -25 -12 -8 -32 -22 -44 -31 -11 -8 -28 -19 -36 -22 -8 -4
-28 -16 -45 -27 -16 -11 -40 -24 -52 -29 -11 -5 -24 -15 -28 -20 -3 -6 -17
-11 -30 -11 -12 0 -25 -7 -29 -15 -3 -8 -16 -15 -29 -15 -14 0 -30 -7 -37 -15
-7 -8 -25 -15 -40 -15 -15 0 -33 -7 -40 -15 -7 -8 -24 -15 -39 -15 -14 0 -35
-7 -45 -15 -11 -8 -36 -15 -55 -15 -20 0 -45 -7 -55 -15 -11 -8 -41 -15 -66
-15 -26 0 -69 -7 -96 -15 -69 -21 -365 -21 -424 0 -23 8 -66 15 -94 15 -28 1
-62 7 -76 15 -14 8 -41 15 -60 15 -19 0 -44 7 -54 15 -11 8 -32 15 -46 15 -14
0 -35 7 -46 15 -10 8 -31 15 -45 15 -15 0 -32 7 -39 15 -7 8 -20 15 -30 15
-10 0 -23 7 -30 15 -7 8 -22 15 -34 15 -12 0 -27 5 -33 11 -13 13 -47 33 -83
49 -13 6 -27 14 -30 18 -6 9 -39 30 -65 41 -11 5 -33 21 -48 35 -15 14 -31 26
-34 26 -25 0 -343 311 -343 335 0 4 -13 24 -28 44 -16 20 -32 43 -35 51 -4 8
-16 29 -27 45 -11 17 -24 40 -29 52 -5 11 -15 24 -20 28 -6 3 -11 14 -11 24 0
10 -7 24 -15 31 -8 7 -15 23 -15 35 0 12 -7 28 -15 35 -8 7 -15 22 -15 34 0
11 -7 30 -15 40 -8 11 -15 29 -15 41 0 12 -7 30 -15 41 -8 10 -15 35 -15 54 0
19 -7 44 -15 54 -8 11 -15 41 -15 66 0 26 -7 69 -15 96 -20 68 -20 319 0 397
8 32 15 73 15 91 0 18 7 41 15 52 8 10 15 35 15 55 0 20 7 42 15 49 8 7 15 21
15 32 0 11 6 32 13 46 15 28 41 86 51 112 3 8 10 22 15 30 5 8 12 22 15 30 4
8 15 29 26 45 11 17 24 40 29 52 5 11 15 24 20 28 6 3 11 15 11 25 0 10 5 22
11 25 19 12 58 -5 65 -28 4 -12 20 -38 35 -58 16 -20 29 -41 29 -46 0 -5 15
-24 34 -42 28 -27 40 -32 72 -29 34 3 41 8 57 42 16 34 18 65 15 315 -2 222
-6 282 -18 306 l-15 30 -305 2 -305 3 -22 -26z"/>
<path d="M4072 6040 c-22 -29 -22 -34 -22 -406 l0 -378 36 -33 37 -33 374 0
c369 0 374 0 403 22 l30 22 0 401 c0 377 -1 403 -18 418 -17 15 -60 17 -418
17 l-400 0 -22 -30z m351 -113 c15 -10 17 -27 15 -117 -4 -128 -5 -130 -133
-118 -122 10 -128 16 -123 136 2 69 7 95 18 102 23 15 203 12 223 -3z m375
-97 c1 -58 -2 -111 -6 -118 -5 -8 -44 -14 -106 -18 -133 -7 -136 -4 -136 127
0 83 3 100 18 108 9 6 63 10 122 8 l105 -2 3 -105z m-368 -269 c5 -11 10 -65
10 -120 0 -121 0 -121 -125 -121 -125 0 -125 0 -125 125 0 132 3 135 137 135
81 0 94 -2 103 -19z m364 3 c9 -23 7 -207 -2 -222 -5 -8 -44 -15 -103 -19
-127 -8 -129 -6 -129 131 0 66 4 106 12 114 8 8 48 12 114 12 84 0 103 -3 108
-16z"/>
<path d="M6149 3396 c-2 -2 -3 -57 -1 -121 l3 -117 99 4 c60 2 104 8 111 15 8
8 13 49 13 118 l1 105 -111 0 c-61 0 -113 -2 -115 -4z"/>
<path d="M6478 3283 c2 -65 5 -119 6 -120 0 -1 48 -3 106 -4 l105 -3 3 122 3
122 -114 0 -113 0 4 -117z"/>
<path d="M5295 2995 c-16 -8 -40 -14 -52 -15 -22 0 -23 -5 -25 -72 -1 -71 2
-131 6 -135 1 -2 16 1 32 6 129 40 208 48 259 27 20 -9 45 -16 55 -16 24 0
130 -101 130 -123 0 -10 7 -32 16 -49 30 -58 3 -165 -60 -231 l-35 -37 -334 0
c-285 0 -336 2 -347 15 -7 8 -17 15 -22 15 -5 0 -18 10 -29 23 -15 18 -18 39
-19 113 0 58 -6 105 -15 127 -8 20 -15 47 -15 60 0 13 -11 44 -25 68 -14 24
-28 51 -32 59 -14 31 -121 120 -145 120 -7 0 -23 7 -34 15 -16 11 -60 15 -180
16 l-159 2 0 -104 0 -104 70 3 c197 8 285 -66 285 -241 0 -87 -6 -102 -58
-159 l-26 -28 -237 0 c-131 0 -239 -3 -241 -7 -2 -5 -2 -54 0 -110 l3 -103
262 0 c213 0 267 3 291 15 15 8 38 15 50 15 12 0 34 12 49 26 32 29 64 27 97
-6 11 -11 29 -20 40 -20 10 0 45 -7 77 -15 84 -22 717 -22 770 0 19 8 50 15
68 15 18 0 38 7 45 15 7 8 20 15 30 15 10 0 20 7 24 15 3 8 14 15 24 15 11 0
25 -7 32 -15 7 -8 18 -15 25 -15 7 0 18 -7 25 -15 7 -8 22 -15 34 -15 11 0 39
-7 61 -15 56 -20 374 -20 430 0 22 8 47 15 56 15 9 0 32 16 52 37 l37 36 0
373 c0 205 -3 374 -7 376 -5 2 -61 2 -125 0 l-118 -3 0 -293 0 -292 -30 -22
c-27 -20 -41 -22 -163 -22 l-133 0 -43 40 c-43 40 -43 41 -52 133 -14 145 -24
206 -37 219 -7 7 -12 18 -12 26 0 34 -139 182 -171 182 -9 0 -22 7 -29 15 -7
8 -22 15 -34 15 -12 0 -31 7 -42 15 -26 20 -305 20 -349 0z"/>
<path d="M2577 2982 c-25 -3 -27 -7 -23 -35 3 -18 8 -57 11 -87 3 -30 10 -61
14 -69 5 -8 34 -14 82 -16 41 -1 89 -6 106 -10 40 -9 113 -79 113 -109 0 -11
7 -30 15 -40 20 -27 21 -149 1 -165 -8 -7 -17 -22 -20 -34 -3 -12 -23 -32 -45
-44 -38 -22 -50 -23 -265 -23 l-226 0 0 -110 0 -110 234 0 c182 0 243 3 276
15 23 8 55 15 70 15 16 0 30 3 32 8 6 15 68 52 86 52 11 0 25 -7 32 -15 7 -8
18 -15 25 -15 7 0 18 -6 24 -14 6 -7 30 -16 54 -19 23 -4 62 -11 87 -16 25 -6
134 -10 242 -11 198 0 210 2 288 40 8 4 25 26 37 50 23 43 23 45 21 403 l-3
359 -102 -1 c-57 0 -112 0 -123 -1 -20 0 -20 -7 -20 -282 0 -156 -4 -288 -8
-293 -4 -6 -20 -21 -36 -33 -26 -20 -40 -22 -167 -22 -122 0 -143 3 -179 21
-64 33 -80 75 -80 208 0 106 -8 144 -41 201 -5 8 -13 25 -18 36 -13 30 -123
134 -141 134 -9 0 -24 6 -35 14 -20 13 -255 27 -318 18z"/>
<path d="M3390 1850 l0 -110 115 0 115 0 0 110 0 110 -115 0 -115 0 0 -110z"/>
<path d="M3719 1956 c-2 -2 -2 -53 1 -113 l5 -108 65 -3 c36 -2 84 0 108 3
l42 6 0 110 0 109 -108 0 c-60 0 -111 -2 -113 -4z"/>
<path d="M5395 1856 c0 -57 3 -107 7 -111 3 -4 53 -7 110 -7 l103 0 3 111 3
111 -113 0 -113 0 0 -104z"/>
</g>
</svg>
